<svg xmlns="http://www.w3.org/2000/svg" width="83" height="32" fill="none" class="text-stone-950 dark:text-white undefined"><path fill="currentColor" d="M-.006 27.742H9.22c5.516 0 8.016-2.758 8.016-6.403 0-3.662-2.516-5.823-4.855-5.968v-.032c2.145-.549 3.871-2.113 3.871-5.065 0-3.5-2.435-6.274-7.5-6.274H-.006v23.742Zm3.645-3.13v-7.531h5.387c2.888 0 4.646 1.838 4.646 4.064 0 1.984-1.355 3.468-4.775 3.468H3.64Zm0-10.418v-7.13h4.968c2.871 0 4.178 1.5 4.178 3.404 0 2.274-1.84 3.726-4.242 3.726H3.639ZM30.677 20.55c0 3.096-1.806 4.451-4.113 4.451-2.355 0-3.887-1.42-3.887-4.129V10.711h-3.468v10.58c0 4.404 2.871 6.71 6.371 6.71 2.678 0 4.371-1.355 5.13-3.129h.064v2.871h3.355V10.711h-3.452v9.839ZM43.381 28.002c3.855 0 6.774-2.178 7.42-5.484h-3.323c-.484 1.596-2.145 2.645-4.08 2.645-2.856 0-4.565-2.258-4.565-5.032H51.01v-.888c0-5.21-2.887-8.79-7.71-8.79-4.822 0-7.951 3.613-7.951 8.807 0 5.193 3.145 8.741 8.032 8.741ZM38.85 17.598c.145-2.274 1.79-4.322 4.42-4.322 2.45 0 4.29 1.758 4.37 4.322h-8.79ZM55.698 17.905c0-3.097 1.807-4.452 4.097-4.452 2.371 0 3.903 1.42 3.903 4.13v10.16h3.452v-10.58c0-4.403-2.855-6.71-6.37-6.71-2.662 0-4.356 1.355-5.114 3.13h-.064V10.71H52.23v17.032h3.467v-9.838ZM74.467 27.985c2.92 0 4.355-1.274 5.097-2.66h.065v2.418h3.37V16.066c0-3.322-2.628-5.613-6.822-5.613-4.29 0-7.032 2.387-7.194 5.516h3.484c.145-1.548 1.549-2.677 3.678-2.677 2.145 0 3.403 1.129 3.403 2.774v.08c0 1.243-1.065 1.21-4.258 1.597-3.468.404-6.726 1.259-6.726 5.13 0 3.403 2.516 5.112 5.903 5.112Zm.742-2.758c-1.968 0-3.177-.838-3.193-2.29-.017-1.71 1.66-2.387 3.5-2.645 1.79-.242 3.58-.532 4.048-.887v1.967c0 2.081-1.403 3.855-4.355 3.855Z"/></svg>